<svg id="Layer_1" data-name="Layer 1" xmlns="http://www.w3.org/2000/svg" viewBox="0 0 128 128"><title>MONEY</title><path d="M113.854,38.738h-6.391V32.27a1.749,1.749,0,0,0-1.75-1.75H14.146a1.75,1.75,0,0,0-1.75,1.75V87.512a1.75,1.75,0,0,0,1.75,1.75h6.391V95.73a1.749,1.749,0,0,0,1.75,1.75h91.567a1.75,1.75,0,0,0,1.75-1.75V40.488A1.75,1.75,0,0,0,113.854,38.738ZM15.9,34.02h88.067V85.762H15.9ZM112.1,93.98H24.037V89.262h81.676a1.749,1.749,0,0,0,1.75-1.75V42.238H112.1Z"/><path d="M29.517,79.294a1.75,1.75,0,0,0,1.75,1.75H88.592a1.749,1.749,0,0,0,1.75-1.75A7.161,7.161,0,0,1,97.5,72.142a1.751,1.751,0,0,0,1.75-1.75v-21a1.751,1.751,0,0,0-1.75-1.75,7.16,7.16,0,0,1-7.153-7.152,1.749,1.749,0,0,0-1.75-1.75H31.267a1.75,1.75,0,0,0-1.75,1.75,7.16,7.16,0,0,1-7.153,7.152,1.751,1.751,0,0,0-1.75,1.75v21a1.751,1.751,0,0,0,1.75,1.75A7.161,7.161,0,0,1,29.517,79.294ZM86.986,42.238A10.682,10.682,0,0,0,95.745,51V68.785a10.68,10.68,0,0,0-8.759,8.759H71.555a21.117,21.117,0,0,0,0-35.306ZM59.93,77.544A17.653,17.653,0,1,1,77.583,59.891,17.674,17.674,0,0,1,59.93,77.544ZM24.114,51a10.683,10.683,0,0,0,8.76-8.759H48.3a21.117,21.117,0,0,0,0,35.306H32.874a10.682,10.682,0,0,0-8.76-8.759Z"/></svg>